<svg width="38" height="25" viewBox="0 0 38 25" fill="none" xmlns="http://www.w3.org/2000/svg">
<g clip-path="url(#clip0_3_333)">
<rect width="38" height="25" fill="white"/>
<g clip-path="url(#clip1_3_333)">
<path d="M38.0046 -0.00461578H-0.00463867V25.0046H38.0046V-0.00461578Z" fill="#284999"/>
<path d="M19.9265 3.82615L19.0386 3.69385L18.6407 2.86L18.2458 3.69385L17.3579 3.82615L17.9993 4.47538L17.8479 5.39231L18.6407 4.95846L19.4365 5.39231L19.2851 4.47538L19.9265 3.82615Z" fill="#FFC943"/>
<path d="M19.9265 19.7092L19.0386 19.5769L18.6407 18.7431L18.2458 19.5769L17.3579 19.7092L17.9993 20.3585L17.8479 21.2754L18.6407 20.8415L19.4365 21.2754L19.2851 20.3585L19.9265 19.7092Z" fill="#FFC943"/>
<path d="M26.9582 13.2508L26.8216 12.3338L27.4719 11.6969L26.59 11.5492L26.2069 10.7092L25.7942 11.5338L24.9063 11.6508L25.5358 12.3123L25.3695 13.2231L26.1713 12.8077L26.9582 13.2508Z" fill="#FFC943"/>
<path d="M11.6268 13.2538L11.4932 12.3338L12.1465 11.6969L11.2616 11.5492L10.8785 10.7092L10.4687 11.5338L9.57788 11.6508L10.2104 12.3123L10.0411 13.2231L10.8429 12.8046L11.6268 13.2538Z" fill="#FFC943"/>
<path d="M24.0036 5.16154L23.1127 5.05692L22.6881 4.23846L22.3199 5.08462L21.4379 5.25077L22.1001 5.87539L21.9784 6.79538L22.7564 6.33692L23.5641 6.74L23.3829 5.83231L24.0036 5.16154Z" fill="#FFC943"/>
<path d="M15.7336 18.3123L14.8457 18.1769L14.4508 17.3462L14.0529 18.1769L13.165 18.3092L13.8064 18.9585L13.6549 19.8754L14.4478 19.4415L15.2406 19.8754L15.0892 18.9615L15.7336 18.3123Z" fill="#FFC943"/>
<path d="M25.7229 17.1646L25.5447 16.2538L26.1683 15.5862L25.2774 15.4785L24.8558 14.66L24.4846 15.5062L23.6027 15.6662L24.2619 16.2938L24.1372 17.2138L24.9181 16.7554L25.7229 17.1646Z" fill="#FFC943"/>
<path d="M12.675 9.20154L12.5325 8.28462L13.1798 7.64154L12.2919 7.5L11.9029 6.66308L11.4991 7.49385L10.6112 7.61692L11.2467 8.27231L11.0893 9.18615L11.8851 8.76154L12.675 9.20154Z" fill="#FFC943"/>
<path d="M21.5003 19.8108L22.2843 19.3615L23.086 19.78L22.9168 18.8662L23.5492 18.2046L22.6584 18.0908L22.2456 17.2631L21.8656 18.1062L20.9807 18.2569L21.6339 18.8908L21.5003 19.8108Z" fill="#FFC943"/>
<path d="M13.747 6.26923L14.5577 5.86923L15.3327 6.33385L15.2169 5.41385L15.885 4.79231L15.0031 4.62308L14.6408 3.77385L14.2102 4.58923L13.3194 4.68461L13.9341 5.36154L13.747 6.26923Z" fill="#FFC943"/>
<path d="M26.1742 9.48769L26.0347 8.57077L26.685 7.93077L25.8001 7.78615L25.4111 6.94923L25.0043 7.77692L24.1164 7.89692L24.7519 8.55538L24.5885 9.46923L25.3873 9.04769L26.1742 9.48769Z" fill="#FFC943"/>
<path d="M12.6721 16.9523L12.5473 16.0323L13.2095 15.4046L12.3246 15.2446L11.9534 14.3985L11.5318 15.22L10.6409 15.3246L11.2645 15.9923L11.0864 16.9031L11.894 16.4969L12.6721 16.9523Z" fill="#FFC943"/>
</g>
</g>
<defs>
<clipPath id="clip0_3_333">
<rect width="38" height="25" fill="white"/>
</clipPath>
<clipPath id="clip1_3_333">
<rect width="38" height="25" fill="white"/>
</clipPath>
</defs>
</svg>
