<svg width="38" height="25" viewBox="0 0 38 25" fill="none" xmlns="http://www.w3.org/2000/svg">
<g clip-path="url(#clip0_1_202)">
<rect width="38" height="25" fill="white"/>
<g clip-path="url(#clip1_1_202)">
<path d="M0 0H38V25H0V0Z" fill="#D80027"/>
<path d="M20.146 9.29559C19.8269 10.6249 19.2599 10.3715 18.9816 11.5308C17.3426 11.1362 16.3331 9.48528 16.7272 7.84344C17.1211 6.20184 18.7695 5.19073 20.4086 5.58537C19.852 7.90417 20.4314 8.10656 20.146 9.29559ZM15.8926 10.2807C17.0564 10.9954 16.6403 11.4572 17.6552 12.0806C16.7738 13.5199 14.8944 13.9713 13.4572 13.0885C12.0201 12.2059 11.5694 10.3233 12.4507 8.88397C14.4806 10.1307 14.8516 9.64136 15.8926 10.2807ZM15.5136 14.6367C16.552 13.749 16.8619 14.2879 17.7674 13.5138C18.8619 14.7981 18.7096 16.7279 17.4274 17.8241C16.1451 18.9204 14.2184 18.7677 13.1239 17.4835C14.9349 15.9355 14.5849 15.4307 15.5136 14.6367ZM19.533 16.3438C19.0108 15.0804 19.6183 14.9516 19.1632 13.85C20.7209 13.2043 22.5064 13.9456 23.1512 15.5058C23.7958 17.066 23.0556 18.8543 21.4979 19.5C20.5872 17.2965 19.9999 17.4739 19.533 16.3438ZM22.3959 13.0427C21.0349 13.1497 21.1003 12.5311 19.9136 12.6243C19.7818 10.9411 21.0375 9.46938 22.7182 9.3372C24.3988 9.20544 25.8682 10.4631 26 12.1464C23.6263 12.3328 23.613 12.9472 22.3959 13.0427Z" fill="#F0F0F0"/>
</g>
</g>
<defs>
<clipPath id="clip0_1_202">
<rect width="38" height="25" fill="white"/>
</clipPath>
<clipPath id="clip1_1_202">
<rect width="38" height="25" fill="white"/>
</clipPath>
</defs>
</svg>
