<svg width="38" height="25" viewBox="0 0 38 25" fill="none" xmlns="http://www.w3.org/2000/svg">
<g clip-path="url(#clip0_1_210)">
<rect width="38" height="25" fill="white"/>
<g clip-path="url(#clip1_1_210)">
<path d="M0 -0.974836H38V24.9748H0V-0.974836Z" fill="white"/>
<path d="M23 12.2667C23 13.3334 21.2091 16 19 16C16.7909 16 15 13.3333 15 12.2667C15 9.91024 16.7909 8 19 8C21.2091 8 23 9.91024 23 12.2667Z" fill="#D80027"/>
<path d="M23 12C23 14.2091 21.2091 16 19 16C16.7909 16 15 14.2091 15 12" fill="#0052B4"/>
<path d="M23.6957 15.914L24.8696 14.7401L25.6522 15.5226L24.4783 16.6965L23.6957 15.914ZM21.739 17.8695L22.913 16.6957L23.6955 17.4782L22.5216 18.6521L21.739 17.8695ZM26.0436 18.2603L27.2174 17.0864L28 17.8689L26.8261 19.0428L26.0436 18.2603ZM24.0868 20.2175L25.2608 19.0436L26.0433 19.8261L24.8695 21L24.0868 20.2175ZM24.8695 17.0871L26.0435 15.9132L26.8261 16.6958L25.6522 17.8696L24.8695 17.0871ZM22.913 19.0435L24.0869 17.8696L24.8695 18.6521L23.6956 19.826L22.913 19.0435ZM26.0441 8.08726L22.9137 4.95691L23.6963 4.17437L26.8267 7.30472L26.0441 8.08726ZM22.9133 7.30486L21.7394 6.13099L22.522 5.34853L23.6958 6.5224L22.9133 7.30486ZM24.869 9.26156L23.6951 8.08768L24.4776 7.30522L25.6516 8.47909L24.869 9.26156ZM25.2596 4.95705L24.0858 3.78317L24.8683 3.00064L26.0423 4.17458L25.2596 4.95705ZM27.2172 6.91381L26.0433 5.73994L26.8259 4.9574L27.9998 6.13127L27.2172 6.91381ZM10.7826 17.0868L13.913 20.2173L13.1305 20.9998L10 17.8694L10.7826 17.0868ZM13.912 17.8699L15.0858 19.0437L14.3033 19.8262L13.1294 18.6523L13.912 17.8699ZM11.9562 15.9132L13.13 17.0872L12.3474 17.8697L11.1735 16.6958L11.9562 15.9132ZM13.1303 14.7397L16.2607 17.8701L15.4781 18.6526L12.3477 15.5223L13.1303 14.7397ZM13.9132 3.78253L10.7828 6.91281L10.0002 6.13028L13.1306 3L13.9132 3.78253ZM15.0858 4.95691L11.9554 8.08726L11.1728 7.30472L14.3032 4.17437L15.0858 4.95691ZM16.2598 6.13078L13.1295 9.2612L12.347 8.47867L15.4773 5.34839L16.2598 6.13078Z" fill="black"/>
</g>
</g>
<defs>
<clipPath id="clip0_1_210">
<rect width="38" height="25" fill="white"/>
</clipPath>
<clipPath id="clip1_1_210">
<rect width="38" height="26" fill="white" transform="translate(0 -1)"/>
</clipPath>
</defs>
</svg>
