<svg width="38" height="25" viewBox="0 0 38 25" fill="none" xmlns="http://www.w3.org/2000/svg">
<g clip-path="url(#clip0_1_214)">
<rect width="38" height="25" fill="white"/>
<g clip-path="url(#clip1_1_214)">
<path d="M38 0H0V25H38V0Z" fill="#F42525"/>
<path d="M20.3467 12.6484L21.8372 10.7934L19.542 11.4196L18.1983 9.3676L18.092 11.8153L15.8533 12.4262L18.0293 13.2588L17.925 15.6624L19.4267 13.7934L21.6548 14.6459L20.3467 12.6484Z" fill="#F7F7F7"/>
<path d="M16.678 15.6084C15.5954 17.4931 14.0594 18.2757 11.7455 18.2757C8.27338 18.2757 5.46478 15.433 5.46478 11.9246C5.46478 8.41856 8.27338 5.57128 11.7455 5.57128C14.3617 5.57128 16.3289 6.86896 17.267 9.17192C16.3945 7.58632 14.9975 6.83976 13.0813 6.83976C10.2539 6.83976 7.96882 9.15848 7.96882 12.0124C7.96882 14.8708 10.2539 17.185 13.0813 17.185C14.7485 17.185 15.7465 16.8611 16.678 15.6084Z" fill="#F7F7F7"/>
</g>
</g>
<defs>
<clipPath id="clip0_1_214">
<rect width="38" height="25" fill="white"/>
</clipPath>
<clipPath id="clip1_1_214">
<rect width="38" height="25" fill="white"/>
</clipPath>
</defs>
</svg>
