<svg width="38" height="25" viewBox="0 0 38 25" fill="none" xmlns="http://www.w3.org/2000/svg">
<g clip-path="url(#clip0_1_4)">
<rect width="38" height="25" fill="white"/>
<g clip-path="url(#clip1_1_4)">
<mask id="mask0_1_4" style="mask-type:luminance" maskUnits="userSpaceOnUse" x="0" y="0" width="38" height="25">
<path d="M38 0H0V25H38V0Z" fill="white"/>
</mask>
<g mask="url(#mask0_1_4)">
<path fill-rule="evenodd" clip-rule="evenodd" d="M0 0H54.15V1.92708H0V0ZM0 3.84897H54.15V5.77605H0V3.84897ZM0 7.6927H54.15V9.61978H0V7.6927ZM0 11.5365H54.15V13.4635H0V11.5365ZM0 15.3906H54.15V17.3073H0V15.3906ZM0 19.2292H54.15V21.1563H0V19.2292ZM0 23.073H54.15V25H0V23.073Z" fill="#BD3D44"/>
<path fill-rule="evenodd" clip-rule="evenodd" d="M-0.000198364 1.92708H54.1498V3.84897H-0.000198364V1.92708ZM-0.000198364 5.77083H54.1498V7.6927H-0.000198364V5.77083ZM-0.000198364 9.61458H54.1498V11.5417H-0.000198364V9.61458ZM-0.000198364 13.4635H54.1498V15.3906H-0.000198364V13.4635ZM-0.000198364 17.3073H54.1498V19.2343H-0.000198364V17.3073ZM-0.000198364 21.151H54.1498V23.0782H-0.000198364V21.151Z" fill="white"/>
<path fill-rule="evenodd" clip-rule="evenodd" d="M0 0H21.66V13.4635H0V0Z" fill="#192F5D"/>
<path fill-rule="evenodd" clip-rule="evenodd" d="M1.80477 0.572968L2.00664 1.10942H2.63601L2.12538 1.43755L2.32132 1.97402L1.80477 1.64068L1.29414 1.9688L1.48414 1.43755L0.967575 1.10942H1.61477L1.80477 0.572968ZM5.41477 0.572968L5.61069 1.10942H6.25195L5.73538 1.43755L5.92538 1.97402L5.41477 1.64068L4.89819 1.9688L5.09414 1.43755L4.58351 1.10942H5.21288L5.41477 0.572968ZM9.02477 0.572968L9.22069 1.10942H9.85601L9.34538 1.43755L9.54132 1.97402L9.02477 1.64068L8.50819 1.9688L8.70414 1.43755L8.18758 1.10942H8.82882L9.02477 0.572968ZM12.6348 0.572968L12.8307 1.10942H13.472L12.9554 1.43755L13.1513 1.97402L12.6348 1.64068L12.1182 1.9688L12.3201 1.43755L11.7976 1.10942H12.4329L12.6348 0.572968ZM16.2447 0.572968L16.4408 1.10942H17.076L16.5654 1.43755L16.7613 1.97402L16.2447 1.64068L15.7282 1.9688L15.9241 1.43755L15.4136 1.10942H16.0488L16.2447 0.572968ZM19.8547 0.572968L20.0508 1.10942H20.6919L20.1695 1.43755L20.3713 1.97402L19.8547 1.64068L19.3382 1.9688L19.5401 1.43755L19.0176 1.10942H19.6588L19.8547 0.572968ZM3.60977 1.92713L3.80569 2.45838H4.45288L3.93632 2.7813L4.12632 3.31777L3.62164 2.98963L3.10508 3.31777L3.28914 2.7813L2.79038 2.45838H3.42569L3.60977 1.92713ZM7.21977 1.92713L7.42164 2.45838H8.05695L7.53445 2.7813L7.73632 3.31777L7.21977 2.98963L6.70319 3.31777L6.89914 2.7813L6.38258 2.45838H7.02382L7.21977 1.92713ZM10.8298 1.92713L11.0257 2.45838H11.667L11.1504 2.7813L11.3463 3.31777L10.8298 2.98963L10.3132 3.31777L10.5091 2.7813L9.99851 2.45838H10.6279L10.8298 1.92713ZM14.4398 1.92713L14.6416 2.45838H15.2769L14.7545 2.7813L14.9563 3.31777L14.4398 2.98963L13.9291 3.31777L14.1191 2.7813L13.6026 2.45838H14.2498L14.4398 1.92713ZM18.0497 1.92713L18.2458 2.45838H18.8869L18.3704 2.7813L18.5663 3.31777L18.0497 2.98963L17.5332 3.31777L17.7291 2.7813L17.2186 2.45838H17.8538L18.0497 1.92713ZM1.80477 3.26047L2.00664 3.80213H2.63601L2.12538 4.13027L2.32132 4.66152L1.80477 4.33338L1.29414 4.66152L1.48414 4.13027L0.967575 3.80213H1.61477L1.80477 3.26047ZM5.41477 3.26047L5.61069 3.80213H6.25195L5.73538 4.13027L5.92538 4.66152L5.41477 4.33338L4.89819 4.66152L5.09414 4.12505L4.58351 3.79693H5.21288L5.41477 3.26047ZM9.02477 3.26047L9.22069 3.79693H9.85601L9.34538 4.12505L9.54132 4.6563L9.02477 4.32818L8.50819 4.6563L8.70414 4.11985L8.18758 3.79172H8.82882L9.02477 3.26047ZM12.6348 3.26047L12.8307 3.79693H13.472L12.9554 4.12505L13.1513 4.6563L12.6348 4.32818L12.1182 4.6563L12.3201 4.11985L11.7976 3.79172H12.4329L12.6348 3.26047ZM16.2447 3.26047L16.4408 3.79693H17.076L16.5654 4.12505L16.7613 4.6563L16.2447 4.32818L15.7282 4.6563L15.9241 4.11985L15.4136 3.79172H16.0488L16.2447 3.26047ZM19.8547 3.26047L20.0508 3.79693H20.6919L20.1695 4.12505L20.3713 4.6563L19.8547 4.32818L19.3382 4.6563L19.5401 4.11985L19.0176 3.79172H19.6588L19.8547 3.26047ZM3.60977 4.61463L3.80569 5.14588H4.45288L3.93632 5.47402L4.13227 6.01047L3.61569 5.67713L3.09914 6.00527L3.29508 5.47402L2.78445 5.14588H3.41977L3.60977 4.61463ZM7.21977 4.61463L7.42164 5.14588H8.05695L7.53445 5.47402L7.73632 6.01047L7.21977 5.67713L6.70319 6.00527L6.89914 5.47402L6.38258 5.14588H7.02382L7.21977 4.61463ZM10.8298 4.61463L11.0257 5.14588H11.667L11.1504 5.47402L11.3463 6.01047L10.8298 5.67713L10.3132 6.00527L10.5091 5.47402L9.99851 5.14588H10.6279L10.8298 4.61463ZM14.4398 4.61463L14.6416 5.14588H15.2769L14.7604 5.47402L14.9563 6.01047L14.4398 5.67713L13.9291 6.00527L14.1191 5.47402L13.6026 5.14588H14.2498L14.4398 4.61463ZM18.0497 4.61463L18.2458 5.14588H18.8869L18.3704 5.47402L18.5663 6.01047L18.0497 5.67713L17.5332 6.00527L17.7291 5.47402L17.2186 5.14588H17.8538L18.0497 4.61463ZM1.80477 5.9636L2.00664 6.49485H2.63601L2.12538 6.82297L2.32132 7.35943L1.80477 7.0261L1.29414 7.35422L1.48414 6.82297L0.967575 6.49485H1.61477L1.80477 5.9636ZM5.41477 5.9636L5.61069 6.49485H6.25195L5.73538 6.82297L5.92538 7.35422L5.41477 7.0261L4.89819 7.35422L5.09414 6.82297L4.58351 6.49485H5.21288L5.41477 5.9636ZM9.02477 5.9636L9.22069 6.49485H9.85601L9.34538 6.82297L9.54132 7.35943L9.02477 7.0261L8.50819 7.35422L8.70414 6.82297L8.18758 6.49485H8.82882L9.02477 5.9636ZM12.6348 5.9636L12.8307 6.49485H13.472L12.9554 6.82297L13.1513 7.35943L12.6348 7.0261L12.1182 7.35422L12.3201 6.82297L11.7976 6.49485H12.4329L12.6348 5.9636ZM16.2447 5.9636L16.4408 6.49485H17.076L16.5654 6.82297L16.7613 7.35943L16.2447 7.0261L15.7282 7.35422L15.9241 6.82297L15.4136 6.49485H16.0488L16.2447 5.9636ZM19.8547 5.9636L20.0508 6.49485H20.6919L20.1695 6.82297L20.3713 7.35943L19.8547 7.0261L19.3382 7.35422L19.5341 6.82297L19.0117 6.49485H19.6528L19.8547 5.9636ZM3.60977 7.30735L3.80569 7.8438H4.45288L3.93632 8.16672L4.13227 8.70318L3.61569 8.36985L3.09914 8.70318L3.29508 8.16672L2.78445 7.8386H3.41977L3.60977 7.30735ZM7.21977 7.30735L7.42164 7.8438H8.05695L7.53445 8.16672L7.73632 8.70318L7.21977 8.36985L6.70319 8.70318L6.89914 8.16672L6.38258 7.8386H7.02382L7.21977 7.30735ZM10.8298 7.30735L11.0257 7.8438H11.667L11.1504 8.16672L11.3463 8.70318L10.8298 8.36985L10.3132 8.70318L10.5091 8.16672L9.99851 7.8386H10.6279L10.8298 7.30735ZM14.4398 7.30735L14.6416 7.8438H15.2769L14.7604 8.16672L14.9563 8.70318L14.4398 8.36985L13.9291 8.70318L14.1191 8.16672L13.6026 7.8386H14.2498L14.4398 7.30735ZM18.0497 7.30735L18.2458 7.8438H18.8869L18.3704 8.16672L18.5663 8.70318L18.0497 8.36985L17.5332 8.70318L17.7291 8.16672L17.2186 7.8386H17.8538L18.0497 7.30735ZM1.80477 8.6511L2.00664 9.18755H2.63601L2.12538 9.51568L2.32132 10.0417L1.80477 9.7188L1.29414 10.0417L1.48414 9.51047L0.967575 9.18235H1.61477L1.80477 8.6511ZM5.41477 8.6511L5.61069 9.18755H6.25195L5.73538 9.51568L5.93132 10.0417L5.41477 9.7188L4.89819 10.0417L5.10008 9.51047L4.58351 9.18235H5.21288L5.41477 8.6511ZM9.02477 8.6511L9.22069 9.18755H9.85601L9.34538 9.51568L9.54132 10.0417L9.02477 9.7188L8.50819 10.0417L8.70414 9.51047L8.18758 9.18235H8.82882L9.02477 8.6511ZM12.6348 8.6511L12.8307 9.18755H13.472L12.9554 9.51568L13.1513 10.0417L12.6348 9.7188L12.1182 10.0417L12.3201 9.51047L11.7976 9.18235H12.4329L12.6348 8.6511ZM16.2447 8.6511L16.4408 9.18755H17.076L16.5654 9.51568L16.7613 10.0417L16.2447 9.7188L15.7282 10.0417L15.9241 9.51047L15.4136 9.18235H16.0488L16.2447 8.6511ZM19.8547 8.6511L20.0508 9.18755H20.6919L20.1695 9.51568L20.3713 10.0417L19.8547 9.7188L19.3382 10.0417L19.5401 9.51047L19.0176 9.18235H19.6588L19.8547 8.6511ZM3.60977 10L3.80569 10.5313H4.45288L3.93632 10.8594L4.13227 11.3959L3.61569 11.0625L3.09914 11.3907L3.29508 10.8594L2.78445 10.5313H3.41977L3.60977 10ZM7.21977 10L7.42164 10.5313H8.05695L7.53445 10.8594L7.73632 11.3959L7.21977 11.0625L6.70319 11.3907L6.89914 10.8594L6.38258 10.5313H7.02382L7.21977 10ZM10.8298 10L11.0257 10.5313H11.667L11.1504 10.8594L11.3463 11.3959L10.8298 11.0625L10.3132 11.3907L10.5091 10.8594L9.99851 10.5313H10.6279L10.8298 10ZM14.4398 10L14.6416 10.5313H15.2769L14.7604 10.8594L14.9563 11.3959L14.4398 11.0625L13.9291 11.3907L14.1191 10.8594L13.6026 10.5313H14.2498L14.4398 10ZM18.0497 10L18.2458 10.5313H18.8869L18.3704 10.8594L18.5663 11.3959L18.0497 11.0625L17.5332 11.3907L17.7291 10.8594L17.2186 10.5313H17.8538L18.0497 10ZM1.80477 11.349L2.00664 11.8803H2.63601L2.12538 12.2084L2.32132 12.7396L1.80477 12.4115L1.29414 12.7396L1.48414 12.2032L0.967575 11.875H1.61477L1.80477 11.349ZM5.41477 11.349L5.61069 11.8803H6.25195L5.73538 12.2084L5.93132 12.7396L5.41477 12.4115L4.89819 12.7396L5.10008 12.2032L4.58351 11.875H5.21288L5.41477 11.349ZM9.02477 11.349L9.22069 11.8803H9.85601L9.35727 12.2084L9.55319 12.7396L9.03664 12.4115L8.52008 12.7396L8.71601 12.2032L8.19945 11.875H8.84069L9.02477 11.349ZM12.6348 11.349L12.8307 11.8803H13.472L12.9554 12.2084L13.1513 12.7396L12.6348 12.4115L12.1182 12.7396L12.3201 12.2032L11.7976 11.875H12.4329L12.6348 11.349ZM16.2447 11.349L16.4408 11.8803H17.076L16.5654 12.2084L16.7613 12.7396L16.2447 12.4115L15.7282 12.7396L15.9241 12.2032L15.4136 11.875H16.0488L16.2447 11.349ZM19.8547 11.349L20.0508 11.8803H20.6919L20.1695 12.2084L20.3713 12.7396L19.8547 12.4115L19.3382 12.7396L19.5401 12.2032L19.0176 11.875H19.6588L19.8547 11.349Z" fill="white"/>
</g>
</g>
</g>
<defs>
<clipPath id="clip0_1_4">
<rect width="38" height="25" fill="white"/>
</clipPath>
<clipPath id="clip1_1_4">
<rect width="38" height="25" fill="white"/>
</clipPath>
</defs>
</svg>
